<?xml version="1.0" encoding="UTF-8"?>
<!DOCTYPE svg PUBLIC "-//W3C//DTD SVG 1.1//EN" "http://www.w3.org/Graphics/SVG/1.1/DTD/svg11.dtd">
<!-- Creator: CorelDRAW 2021 (64-Bit Оценочная версия) -->
<svg xmlns="http://www.w3.org/2000/svg" xml:space="preserve" width="60mm" height="90mm" version="1.1" style="shape-rendering:geometricPrecision; text-rendering:geometricPrecision; image-rendering:optimizeQuality; fill-rule:evenodd; clip-rule:evenodd"
viewBox="0 0 6000 9000"
 xmlns:xlink="http://www.w3.org/1999/xlink"
 xmlns:xodm="http://www.corel.com/coreldraw/odm/2003">
 <defs>
  <style type="text/css">
   <![CDATA[
    .str0 {stroke:#2B2A29;stroke-width:70.56;stroke-miterlimit:22.9256}
    .fil1 {fill:none}
    .fil0 {fill:white}
   ]]>
  </style>
 </defs>
 <g id="Слой_x0020_1">
  <metadata id="CorelCorpID_0Corel-Layer"/>
  <g>
   <path class="fil0" d="M-1.84 4.27l5996.17 0 0 9000 -5996.17 0 0 -9000zm-3.83 1027.21l5996.16 0 -5996.16 0zm3001.91 7972.79l0.01 -8000 -0.01 8000zm-1499.04 -8250l-999.36 0 499.68 -450 499.68 450zm2998.09 -450l999.36 0 -499.68 449.99 -499.68 -449.99z"/>
   <path id="_1" class="fil1 str0" d="M-1.84 4.27l5996.17 0 0 9000 -5996.17 0 0 -9000zm-3.83 1027.21l5996.16 0m-2994.25 7972.79l0.01 -8000m-1499.05 -250l-999.36 0 499.68 -450 499.68 450zm2998.09 -450l999.36 0 -499.68 449.99 -499.68 -449.99z"/>
  </g>
 </g>
</svg>
